<?xml version="1.0" encoding="utf-8"?> <!-- Generator: IcoMoon.io --> <!DOCTYPE svg PUBLIC "-//W3C//DTD SVG 1.1//EN" "http://www.w3.org/Graphics/SVG/1.1/DTD/svg11.dtd"> <svg width="25" height="25.135936737060547" viewBox="0 0 25 25.135936737060547" xmlns="http://www.w3.org/2000/svg" xmlns:xlink="http://www.w3.org/1999/xlink" fill="#383838"><g><path d="M 12.5,21.851c-0.507,0-1.249-0.57-1.741-0.623c-1.404,1.177-2.866,2.595-4.855,3.331 c-0.868,0.368-1.613,0.581-1.807,0.349c-0.26-0.302-0.653-0.722-0.723-0.834c 0.004-0.167, 0.206-0.035, 0.427-0.273 c 1.2-0.505, 1.975-1.807, 2.496-3.399C 2.538,18.519,0,14.985,0,10.927C0,4.895, 5.597,0.005, 12.5,0.005s 12.5,4.89, 12.5,10.923 S 19.403,21.851, 12.5,21.851z"></path></g></svg>