<?xml version="1.0" encoding="utf-8"?> <!-- Generator: IcoMoon.io --> <!DOCTYPE svg PUBLIC "-//W3C//DTD SVG 1.1//EN" "http://www.w3.org/Graphics/SVG/1.1/DTD/svg11.dtd"> <svg width="25.075000762939453" height="25.075000762939453" viewBox="0 0 25.075000762939453 25.075000762939453" xmlns="http://www.w3.org/2000/svg" xmlns:xlink="http://www.w3.org/1999/xlink" fill="#383838"><g><path d="M 24.777,22.62c 0.298,0.298, 0.298,0.78,0,1.079l-1.079,1.079 c-0.298,0.298-0.781,0.298-1.079,0l-7.553-7.553c-0.082-0.082-0.137-0.179-0.173-0.282C 13.344,18.074, 11.441,18.75, 9.375,18.75 C 4.198,18.75,0,14.552,0,9.375C0,4.198, 4.198,0, 9.375,0c 5.177,0, 9.375,4.198, 9.375,9.375c0,2.066-0.676,3.969-1.808,5.518 c 0.103,0.037, 0.2,0.091, 0.282,0.173L 24.777,22.62z M 9.375,3.125c-3.452,0-6.25,2.798-6.25,6.25c0,3.452, 2.798,6.25, 6.25,6.25s 6.25-2.798, 6.25-6.25 C 15.625,5.923, 12.827,3.125, 9.375,3.125z"></path></g></svg>